<mxfile host="app.diagrams.net" agent="Mozilla/5.0 (Windows NT 10.0; Win64; x64) AppleWebKit/537.36 (KHTML, like Gecko) Chrome/133.0.0.0 Safari/537.36" version="26.0.15">
  <diagram name="Seite-1" id="c4AOGn50b_fggz-LkczZ">
    <mxGraphModel dx="989" dy="615" grid="1" gridSize="10" guides="1" tooltips="1" connect="1" arrows="1" fold="1" page="1" pageScale="1" pageWidth="827" pageHeight="1169" math="0" shadow="0">
      <root>
        <mxCell id="0" />
        <mxCell id="1" parent="0" />
        <mxCell id="wEOEG-__j16lVAvljCNo-1" value="&lt;font style=&quot;font-size: 20px;&quot;&gt;&lt;b&gt;AP2 Automatic Test Case Generator&lt;/b&gt;&lt;/font&gt;&lt;div&gt;&lt;br&gt;&lt;/div&gt;" style="text;html=1;align=center;verticalAlign=middle;whiteSpace=wrap;rounded=0;fillColor=#d5e8d4;strokeColor=#82b366;" vertex="1" parent="1">
          <mxGeometry x="100" y="120" width="640" height="90" as="geometry" />
        </mxCell>
        <mxCell id="wEOEG-__j16lVAvljCNo-3" value="&lt;h1 style=&quot;margin-top: 0px;&quot;&gt;Manual Workflow&lt;/h1&gt;&lt;p&gt;Current Workflow&lt;/p&gt;&lt;p&gt;1. open Azure/DevOp ADO and check the KE elements that need to be implemented&lt;/p&gt;&lt;p&gt;2. check whether the elements are implemented : XML data Azure DevOp Code Search&amp;nbsp;&lt;a style=&quot;background-color: transparent;&quot; href=&quot;https://learn.microsoft.com/en-us/azure/devops/project/search/functional-code-search?view=azure-devops&quot;&gt;Functional code search - Azure Repos | Microsoft Learn&lt;/a&gt;&lt;/p&gt;&lt;p&gt;3. for the implemented elements we need to find the&amp;nbsp;&lt;/p&gt;&lt;p&gt;&lt;span style=&quot;white-space: pre;&quot;&gt;&#x9;&lt;/span&gt;3.1 KE Element Specification on polarion: which element it is&lt;br&gt;&lt;/p&gt;&lt;p&gt;&lt;span style=&quot;white-space: pre;&quot;&gt;&#x9;&lt;/span&gt;3.2 find the precondition, trigger condition, post condition ..(To be defined)&lt;br&gt;&lt;/p&gt;&lt;p&gt;&lt;span style=&quot;white-space: pre;&quot;&gt;&#x9;&lt;/span&gt;3.3&amp;nbsp;&lt;br&gt;&lt;/p&gt;" style="text;html=1;whiteSpace=wrap;overflow=hidden;rounded=0;" vertex="1" parent="1">
          <mxGeometry x="80" y="240" width="550" height="350" as="geometry" />
        </mxCell>
        <mxCell id="wEOEG-__j16lVAvljCNo-4" value="&lt;h1 style=&quot;margin-top: 0px;&quot;&gt;Important URL Links&amp;nbsp;&lt;/h1&gt;&lt;p&gt;1. ADO&lt;/p&gt;&lt;p&gt;2. Repo&lt;/p&gt;&lt;p&gt;3. check whether the KE Element is implemented&lt;/p&gt;&lt;p&gt;4. TMA Instance in&amp;nbsp;&lt;span style=&quot;background-color: transparent; color: light-dark(rgb(0, 0, 0), rgb(255, 255, 255));&quot;&gt;__init__.py&lt;/span&gt;&lt;/p&gt;&lt;p&gt;5. FDX&lt;/p&gt;" style="text;html=1;whiteSpace=wrap;overflow=hidden;rounded=0;" vertex="1" parent="1">
          <mxGeometry x="80" y="650" width="380" height="230" as="geometry" />
        </mxCell>
      </root>
    </mxGraphModel>
  </diagram>
</mxfile>
